# xmcd
#
# Track frame offsets: 
#        150
#        21582
#        43077
#        63145
#        85367
#        106525
#        128365
#        148935
#        172332
#        193120
#        209007
#        230062
#        251375
#
# Disc length: 3557 seconds
#
# Revision: 1
# Processed by: cddbd v1.5.2PL0 Copyright (c) Steve Scherf et al.
# Submitted via: ExactAudioCopy v0.95b3
#
DISCID=be0de30d
DTITLE=Linda Lewis - Whatever...
DYEAR=1996
DGENRE=Soul
TTITLE0=Don't Come Crying
TTITLE1=Breathing Space
TTITLE2=And Of The Sun
TTITLE3=Last Call
TTITLE4=Far Cry
TTITLE5=Easy
TTITLE6=Whatever
TTITLE7=He's A Diamond
TTITLE8=Makes You Wonder
TTITLE9=Doin' The Right Thing
TTITLE10=Mr Respectable
TTITLE11=Reach For The Truth
TTITLE12=Light Years Away
EXTD=
EXTT0=
EXTT1=
EXTT2=
EXTT3=
EXTT4=
EXTT5=
EXTT6=
EXTT7=
EXTT8=
EXTT9=
EXTT10=
EXTT11=
EXTT12=
PLAYORDER=
